HIERARCHY
ROOT Hips
{
	OFFSET 54.218399 -9.793426 94.141998
	CHANNELS 6 Xposition Yposition Zposition Xrotation Yrotation Zrotation
	JOINT spine
	{
		OFFSET 0.000000 -0.448574 7.800591
		CHANNELS 3 Xrotation Yrotation Zrotation
		JOINT spine1
		{
			OFFSET 0.000000 -0.000002 10.136398
			CHANNELS 3 Xrotation Yrotation Zrotation
			JOINT spine2
			{
				OFFSET 0.000000 -0.000002 9.712509
				CHANNELS 3 Xrotation Yrotation Zrotation
				JOINT Neck
				{
					OFFSET 0.000000 -1.188873 24.936104
					CHANNELS 3 Xrotation Yrotation Zrotation
					JOINT Head
					{
						OFFSET 0.000000 -0.000001 7.533844
						CHANNELS 3 Xrotation Yrotation Zrotation
						End Site
						{
							OFFSET 0.000000 6.014017 18.236099
						}
					}
				}
				JOINT RightShoulder
				{
					OFFSET -4.089649 0.569455 10.488808
					CHANNELS 3 Xrotation Yrotation Zrotation
					JOINT RightArm
					{
						OFFSET 0.000000 -0.000002 13.757004
						CHANNELS 3 Xrotation Yrotation Zrotation
						JOINT RightArmRoll
						{
							OFFSET 0.000000 -0.000001 6.944778
							CHANNELS 3 Xrotation Yrotation Zrotation
							JOINT RightForeArm
							{
								OFFSET 0.000000 -0.000004 20.227692
								CHANNELS 3 Xrotation Yrotation Zrotation
								JOINT RightForeArmRoll
								{
									OFFSET 0.000000 -0.000001 7.793121
									CHANNELS 3 Xrotation Yrotation Zrotation
									JOINT RightHand
									{
										OFFSET 0.000000 -0.000003 15.639099
										CHANNELS 3 Xrotation Yrotation Zrotation
										End Site
										{
											OFFSET 0.000000 0.000000 0.100006
										}
									}
								}
							}
						}
					}
				}
				JOINT LeftShoulder
				{
					OFFSET 4.089649 0.569455 10.488808
					CHANNELS 3 Xrotation Yrotation Zrotation
					JOINT LeftArm
					{
						OFFSET 0.000000 -0.000002 13.757004
						CHANNELS 3 Xrotation Yrotation Zrotation
						JOINT LeftArmRoll
						{
							OFFSET 0.000000 -0.000001 6.944778
							CHANNELS 3 Xrotation Yrotation Zrotation
							JOINT LeftForeArm
							{
								OFFSET 0.000000 -0.000004 20.227692
								CHANNELS 3 Xrotation Yrotation Zrotation
								JOINT LeftForeArmRoll
								{
									OFFSET 0.000000 -0.000001 7.793121
									CHANNELS 3 Xrotation Yrotation Zrotation
									JOINT LeftHand
									{
										OFFSET 0.000000 -0.000003 15.639099
										CHANNELS 3 Xrotation Yrotation Zrotation
										End Site
										{
											OFFSET 0.000000 0.000000 0.100006
										}
									}
								}
							}
						}
					}
				}
			}
		}
	}
	JOINT RightUpLeg
	{
		OFFSET -6.914162 1.063581 -1.267883
		CHANNELS 3 Xrotation Yrotation Zrotation
		JOINT RightUpLegRoll
		{
			OFFSET 0.000000 -0.000003 18.337799
			CHANNELS 3 Xrotation Yrotation Zrotation
			JOINT RightLeg
			{
				OFFSET 0.000000 0.000004 -22.708496
				CHANNELS 3 Xrotation Yrotation Zrotation
				JOINT RightLegRoll
				{
					OFFSET 0.000000 -0.000004 22.782799
					CHANNELS 3 Xrotation Yrotation Zrotation
					JOINT RightFoot
					{
						OFFSET 0.000000 -0.000003 18.962898
						CHANNELS 3 Xrotation Yrotation Zrotation
						JOINT RightToeBase
						{
							OFFSET 0.000000 -0.000003 15.852005
							CHANNELS 3 Xrotation Yrotation Zrotation
							End Site
							{
								OFFSET 0.006718 0.884891 7.677017
							}
						}
					}
				}
			}
		}
	}
	JOINT LeftUpLeg
	{
		OFFSET 6.914162 1.063581 -1.267883
		CHANNELS 3 Xrotation Yrotation Zrotation
		JOINT LeftUpLegRoll
		{
			OFFSET 0.000000 -0.000003 18.337898
			CHANNELS 3 Xrotation Yrotation Zrotation
			JOINT LeftLeg
			{
				OFFSET 0.000000 -0.000004 22.708397
				CHANNELS 3 Xrotation Yrotation Zrotation
				JOINT LeftLegRoll
				{
					OFFSET 0.000000 -0.000004 22.993408
					CHANNELS 3 Xrotation Yrotation Zrotation
					JOINT LeftFoot
					{
						OFFSET 0.000000 -0.000003 18.752197
						CHANNELS 3 Xrotation Yrotation Zrotation
						JOINT LeftToeBase
						{
							OFFSET 0.000000 -0.000003 15.852005
							CHANNELS 3 Xrotation Yrotation Zrotation
							End Site
							{
								OFFSET -0.030113 0.884892 7.677002
							}
						}
					}
				}
			}
		}
	}
}
MOTION
Frames: 8
Frame Time: 0.041667
54.153198 -10.860010 91.064201 -11.091129 0.272691 3.457686 2.263638 -0.604500 0.061034 8.531271 -1.204458 0.151731 10.176564 -1.202742 0.166155 8.779144 12.973295 -2.877194 -12.540952 -10.938423 -3.986817 -13.030205 -67.721954 -15.716426 362.951581 -104.819792 307.960280 0.000001 0.000005 0.000005 118.956583 14.061894 -36.296066 0.000001 0.000000 -3.001661 -5.000168 -7.998803 0.000149 -8.586336 58.969196 10.139695 -56.794905 113.462966 81.686358 0.000001 -0.000003 -0.000002 124.232494 -4.079784 22.417857 0.000002 0.000004 3.006822 -5.000208 7.999487 -0.000068 -2.083792 -177.375737 1.220679 -179.999991 0.000005 -1.330994 146.009063 0.657505 -0.867672 -0.000005 -0.000002 1.390420 85.084978 6.297754 2.927060 25.465822 -7.348653 0.002391 -6.442544 172.458370 -1.092188 -0.000003 -0.000005 -1.058310 -33.732890 6.043782 2.369850 -0.000010 0.000001 -0.471670 80.341869 -6.633803 -2.011772 25.447055 7.355579 0.014976 
54.164398 -10.857716 91.053703 -11.115884 0.328491 3.254571 2.263664 -0.610908 0.047110 8.531174 -1.217977 0.124233 10.176419 -1.216552 0.138820 8.896914 12.525066 -2.718274 -12.621641 -10.396361 -3.781325 -13.307106 -67.943464 -16.036097 366.527950 -104.315027 311.359310 0.000002 0.000006 0.000003 119.096738 14.242297 -36.719981 0.000001 0.000002 -3.001680 -5.000168 -7.998804 0.000147 -8.382743 58.710742 9.880804 -58.073253 114.069760 82.806591 -0.000001 -0.000002 -0.000004 124.226388 -4.052434 22.240173 0.000003 0.000006 3.006818 -5.000209 7.999489 -0.000074 -2.105475 -177.398768 1.184151 -179.999991 0.000005 -1.329997 146.012874 0.693193 -0.862680 -0.000004 -0.000001 1.386740 85.036449 6.290943 2.960738 25.465927 -7.348656 0.001830 -6.382373 172.428658 -1.129560 -0.000002 -0.000005 -1.057730 -33.754928 6.067432 2.375210 -0.000010 0.000001 -0.472935 80.390951 -6.639842 -1.985114 25.449275 7.355588 0.011583 
54.165100 -10.846613 91.061600 -11.136854 0.384433 3.050779 2.262575 -0.616601 0.033909 8.528902 -1.230049 0.098135 10.174165 -1.228864 0.112865 9.021361 12.069147 -2.562854 -12.705058 -9.855561 -3.577855 -13.584971 -68.172180 -16.356512 370.143633 -103.845267 314.776289 0.000002 0.000005 0.000005 119.256660 14.421830 -37.161847 -0.000000 0.000002 -3.001701 -5.000171 -7.998803 0.000147 -8.180533 58.446393 9.622332 -59.284785 114.690337 83.842601 0.000002 -0.000003 -0.000002 124.202236 -4.020939 22.045554 -0.000001 0.000002 3.006820 -5.000210 7.999487 -0.000068 -2.128821 -177.420789 1.147217 -179.999991 0.000005 -1.329000 146.021480 0.728098 -0.857315 -0.000005 -0.000002 1.382700 84.985168 6.284193 2.993967 25.465828 -7.348662 0.001066 -6.325256 172.399002 -1.165809 -0.000005 -0.000005 -1.056940 -33.774527 6.092071 2.380666 -0.000010 0.000001 -0.473785 80.435422 -6.645754 -1.959114 25.452613 7.355595 0.006638 
54.171101 -10.844814 91.064301 -11.153333 0.440451 2.846308 2.260234 -0.621515 0.021550 8.524103 -1.240528 0.073662 10.169405 -1.239562 0.088520 9.154013 11.605133 -2.411566 -12.792562 -9.316808 -3.376957 -13.863951 -68.410669 -16.677930 373.757814 -103.399126 318.168981 0.000002 0.000006 0.000001 119.440064 14.600211 -37.625186 0.000001 0.000004 -3.001720 -5.000168 -7.998806 0.000147 -7.979150 58.176205 9.363625 -60.434668 115.323113 84.798410 0.000000 -0.000001 -0.000002 124.158810 -3.984699 21.834728 0.000004 0.000006 3.006819 -5.000207 7.999492 -0.000068 -2.154025 -177.441799 1.109962 -179.999991 0.000005 -1.328002 146.035195 0.762219 -0.852592 -0.000005 -0.000002 1.378300 84.931155 6.277508 3.026937 25.465423 -7.348660 0.000002 -6.271686 172.368402 -1.200717 -0.000003 -0.000004 -1.055930 -33.791394 6.117818 2.386220 -0.000011 0.000001 -0.474174 80.474614 -6.651697 -1.933618 25.456959 7.355613 -0.000001 
54.185101 -10.801318 91.057800 -11.166527 0.497351 2.641035 2.256897 -0.625644 0.009854 8.517340 -1.249421 0.050463 10.162638 -1.248615 0.065428 9.294532 11.128125 -2.262948 -12.883037 -8.774869 -3.177364 -14.145483 -68.657840 -17.001618 377.389207 -102.974193 321.563066 0.000001 0.000008 -0.000000 119.645913 14.776872 -38.109829 -0.000001 0.000004 -3.001739 -5.000168 -7.998806 0.000149 -7.779829 57.897369 9.106000 -61.535961 115.968935 85.683767 0.000000 -0.000001 -0.000003 124.100931 -3.940826 21.606065 0.000005 0.000003 3.006823 -5.000214 7.999489 -0.000070 -2.180010 -177.464830 1.071346 -179.999991 0.000005 -1.327005 146.053678 0.795568 -0.848495 -0.000005 -0.000002 1.373500 84.874116 6.270867 3.059974 25.464916 -7.348665 -0.001096 -6.221686 172.336861 -1.234608 -0.000003 -0.000005 -1.054610 -33.807620 6.144342 2.391773 -0.000008 0.000001 -0.474121 80.509018 -6.657492 -1.908890 25.461707 7.355645 -0.009179 
54.204498 -10.801114 91.058907 -11.177733 0.555754 2.434796 2.252986 -0.629061 -0.001441 8.509404 -1.256894 0.028022 10.154669 -1.256196 0.043074 9.440922 10.635171 -2.114885 -12.974458 -8.225166 -2.977522 -14.430407 -68.909335 -17.328154 381.089285 -102.576075 325.019551 0.000001 0.000006 0.000004 119.870052 14.950394 -38.611923 0.000001 0.000003 -3.001760 -5.000171 -7.998805 0.000151 -7.584320 57.608288 8.851421 -62.611115 116.626354 86.521066 0.000001 -0.000003 -0.000003 124.033572 -3.887653 21.360237 0.000001 0.000003 3.006820 -5.000209 7.999489 -0.000070 -2.205774 -177.490867 1.030516 -179.999991 0.000005 -1.325994 146.076259 0.830637 -0.843373 -0.000005 -0.000002 1.368280 84.814106 6.263856 3.094050 25.464511 -7.348659 -0.001921 -6.174750 172.302382 -1.267653 -0.000003 -0.000005 -1.052950 -33.824692 6.171317 2.397234 -0.000009 0.000001 -0.473701 80.539077 -6.663310 -1.884710 25.466359 7.355671 -0.021317 
54.195099 -10.834115 91.078705 -11.186752 0.615320 2.227636 2.248507 -0.631812 -0.012353 8.500331 -1.263026 0.006309 10.145589 -1.262403 0.021434 9.592271 10.128613 -1.967016 -13.066424 -7.669180 -2.777420 -14.718711 -69.163780 -17.657470 384.865887 -102.207156 328.548464 0.000002 0.000007 0.000005 120.110611 15.120917 -39.126315 0.000001 0.000004 -3.001778 -5.000172 -7.998805 0.000147 -7.392609 57.309993 8.599948 -63.656728 117.295768 87.308252 0.000002 -0.000001 -0.000003 123.955953 -3.826839 21.096772 0.000003 0.000005 3.006822 -5.000207 7.999493 -0.000070 -2.231615 -177.517887 0.987775 -179.999991 0.000005 -1.324997 146.102732 0.864926 -0.838900 -0.000007 -0.000002 1.362660 84.751105 6.256670 3.129077 25.464308 -7.348656 -0.002474 -6.130469 172.266933 -1.300001 -0.000003 -0.000005 -1.050990 -33.841818 6.198802 2.402616 -0.000009 0.000001 -0.472941 80.565128 -6.669121 -1.860866 25.471111 7.355693 -0.035952 
54.201500 -10.812313 91.064697 -11.193588 0.675704 2.019561 2.243465 -0.633946 -0.022895 8.490153 -1.267916 -0.014704 10.135407 -1.267326 0.000477 9.747669 9.610699 -1.819009 -13.158435 -7.108393 -2.577056 -15.010263 -69.419755 -17.989385 388.728660 -101.868651 332.161525 0.000002 0.000006 0.000001 120.366033 15.286913 -39.654432 -0.000000 0.000001 -3.001801 -5.000169 -7.998805 0.000149 -7.204724 57.003577 8.351662 -64.674747 117.976068 88.049355 0.000001 -0.000001 -0.000003 123.867325 -3.759562 20.817016 0.000003 0.000002 3.006821 -5.000204 7.999489 -0.000069 -2.257808 -177.546902 0.943572 -179.999991 0.000005 -1.324000 146.132963 0.900115 -0.833942 -0.000003 -0.000002 1.356660 84.685193 6.249332 3.164641 25.464105 -7.348658 -0.002814 -6.088480 172.229531 -1.331502 -0.000004 -0.000004 -1.048790 -33.858286 6.226842 2.407945 -0.000008 0.000001 -0.471863 80.587312 -6.674954 -1.837544 25.475952 7.355724 -0.052596 
